<mxfile host="app.diagrams.net" agent="Mozilla/5.0 (Windows NT 10.0; Win64; x64) AppleWebKit/537.36 (KHTML, like Gecko) Chrome/135.0.0.0 Safari/537.36 OPR/120.0.0.0" version="28.0.9">
  <diagram name="Page-1" id="yiOKuUuSApPGLSMHls8P">
    <mxGraphModel dx="1960" dy="387" grid="1" gridSize="10" guides="1" tooltips="1" connect="1" arrows="1" fold="1" page="1" pageScale="1" pageWidth="850" pageHeight="1100" math="0" shadow="0">
      <root>
        <mxCell id="0" />
        <mxCell id="1" parent="0" />
        <mxCell id="RAs32KpJlCHKYsDaDuBX-1" value="" style="ellipse;html=1;shape=startState;fillColor=light-dark(#000000,#000000);strokeColor=light-dark(#FF0000,#FFFFFF);" vertex="1" parent="1">
          <mxGeometry x="160" y="50" width="30" height="30" as="geometry" />
        </mxCell>
        <mxCell id="RAs32KpJlCHKYsDaDuBX-2" value="" style="edgeStyle=orthogonalEdgeStyle;html=1;verticalAlign=bottom;endArrow=block;endSize=8;strokeColor=light-dark(#FF0000,#000000);rounded=0;endFill=1;entryX=0.5;entryY=0;entryDx=0;entryDy=0;" edge="1" source="RAs32KpJlCHKYsDaDuBX-1" parent="1" target="RAs32KpJlCHKYsDaDuBX-3">
          <mxGeometry relative="1" as="geometry">
            <mxPoint x="175" y="150" as="targetPoint" />
          </mxGeometry>
        </mxCell>
        <mxCell id="RAs32KpJlCHKYsDaDuBX-3" value="Display all unprocessed accounts" style="rounded=0;whiteSpace=wrap;html=1;" vertex="1" parent="1">
          <mxGeometry x="115" y="120" width="120" height="60" as="geometry" />
        </mxCell>
        <mxCell id="RAs32KpJlCHKYsDaDuBX-4" value="" style="edgeStyle=orthogonalEdgeStyle;html=1;verticalAlign=bottom;endArrow=block;endSize=8;strokeColor=light-dark(#FF0000,#000000);rounded=0;endFill=1;entryX=0.5;entryY=0;entryDx=0;entryDy=0;exitX=0.5;exitY=1;exitDx=0;exitDy=0;" edge="1" parent="1" target="RAs32KpJlCHKYsDaDuBX-5" source="RAs32KpJlCHKYsDaDuBX-3">
          <mxGeometry relative="1" as="geometry">
            <mxPoint x="175" y="260" as="targetPoint" />
            <mxPoint x="175" y="190" as="sourcePoint" />
          </mxGeometry>
        </mxCell>
        <mxCell id="RAs32KpJlCHKYsDaDuBX-5" value="Pick an account you&amp;nbsp;&lt;br&gt;want to work on" style="rounded=0;whiteSpace=wrap;html=1;" vertex="1" parent="1">
          <mxGeometry x="115" y="230" width="120" height="60" as="geometry" />
        </mxCell>
        <mxCell id="RAs32KpJlCHKYsDaDuBX-6" value="" style="edgeStyle=orthogonalEdgeStyle;html=1;verticalAlign=bottom;endArrow=block;endSize=8;strokeColor=light-dark(#FF0000,#000000);rounded=0;endFill=1;entryX=0.5;entryY=0;entryDx=0;entryDy=0;exitX=0.5;exitY=1;exitDx=0;exitDy=0;" edge="1" parent="1" target="RAs32KpJlCHKYsDaDuBX-7" source="RAs32KpJlCHKYsDaDuBX-5">
          <mxGeometry relative="1" as="geometry">
            <mxPoint x="175" y="380" as="targetPoint" />
            <mxPoint x="175" y="310" as="sourcePoint" />
          </mxGeometry>
        </mxCell>
        <mxCell id="RAs32KpJlCHKYsDaDuBX-7" value="Direct to clicked account page information" style="rounded=0;whiteSpace=wrap;html=1;" vertex="1" parent="1">
          <mxGeometry x="115" y="350" width="120" height="60" as="geometry" />
        </mxCell>
        <mxCell id="RAs32KpJlCHKYsDaDuBX-8" value="" style="edgeStyle=orthogonalEdgeStyle;html=1;verticalAlign=bottom;endArrow=block;endSize=8;strokeColor=light-dark(#FF0000,#000000);rounded=0;endFill=1;entryX=0.5;entryY=0;entryDx=0;entryDy=0;exitX=0.5;exitY=1;exitDx=0;exitDy=0;" edge="1" parent="1" target="RAs32KpJlCHKYsDaDuBX-9" source="RAs32KpJlCHKYsDaDuBX-7">
          <mxGeometry relative="1" as="geometry">
            <mxPoint x="175" y="510" as="targetPoint" />
            <mxPoint x="175" y="440" as="sourcePoint" />
          </mxGeometry>
        </mxCell>
        <mxCell id="RAs32KpJlCHKYsDaDuBX-9" value="Check if the information checks out" style="rounded=0;whiteSpace=wrap;html=1;" vertex="1" parent="1">
          <mxGeometry x="115" y="470" width="120" height="60" as="geometry" />
        </mxCell>
        <mxCell id="RAs32KpJlCHKYsDaDuBX-12" value="" style="edgeStyle=orthogonalEdgeStyle;html=1;verticalAlign=bottom;endArrow=block;endSize=8;strokeColor=light-dark(#FF0000,#000000);rounded=0;endFill=1;entryX=0.5;entryY=0;entryDx=0;entryDy=0;exitX=0.5;exitY=1;exitDx=0;exitDy=0;" edge="1" parent="1" target="RAs32KpJlCHKYsDaDuBX-65" source="RAs32KpJlCHKYsDaDuBX-9">
          <mxGeometry relative="1" as="geometry">
            <mxPoint x="175" y="590" as="targetPoint" />
            <mxPoint x="175" y="560" as="sourcePoint" />
          </mxGeometry>
        </mxCell>
        <mxCell id="RAs32KpJlCHKYsDaDuBX-62" value="" style="ellipse;html=1;shape=endState;fillColor=#000000;strokeColor=light-dark(#000000,#000000);" vertex="1" parent="1">
          <mxGeometry x="-75" y="940" width="30" height="30" as="geometry" />
        </mxCell>
        <mxCell id="RAs32KpJlCHKYsDaDuBX-65" value="" style="rhombus;whiteSpace=wrap;html=1;" vertex="1" parent="1">
          <mxGeometry x="135" y="600" width="80" height="80" as="geometry" />
        </mxCell>
        <mxCell id="RAs32KpJlCHKYsDaDuBX-66" value="" style="edgeStyle=segmentEdgeStyle;endArrow=classic;html=1;curved=0;rounded=0;endSize=8;startSize=8;exitX=0;exitY=0.5;exitDx=0;exitDy=0;strokeColor=light-dark(#000000,#000000);entryX=0.5;entryY=0;entryDx=0;entryDy=0;" edge="1" parent="1" source="RAs32KpJlCHKYsDaDuBX-65" target="RAs32KpJlCHKYsDaDuBX-71">
          <mxGeometry width="50" height="50" relative="1" as="geometry">
            <mxPoint x="110" y="640" as="sourcePoint" />
            <mxPoint x="55" y="740" as="targetPoint" />
          </mxGeometry>
        </mxCell>
        <mxCell id="RAs32KpJlCHKYsDaDuBX-67" value="if the information is correct" style="edgeLabel;html=1;align=center;verticalAlign=middle;resizable=0;points=[];" vertex="1" connectable="0" parent="RAs32KpJlCHKYsDaDuBX-66">
          <mxGeometry x="-0.7291" relative="1" as="geometry">
            <mxPoint x="-51" y="10" as="offset" />
          </mxGeometry>
        </mxCell>
        <mxCell id="RAs32KpJlCHKYsDaDuBX-68" value="" style="edgeStyle=segmentEdgeStyle;endArrow=classic;html=1;curved=0;rounded=0;endSize=8;startSize=8;exitX=1;exitY=0.5;exitDx=0;exitDy=0;strokeColor=light-dark(#000000,#000000);entryX=0.5;entryY=0;entryDx=0;entryDy=0;" edge="1" parent="1" source="RAs32KpJlCHKYsDaDuBX-65" target="RAs32KpJlCHKYsDaDuBX-82">
          <mxGeometry width="50" height="50" relative="1" as="geometry">
            <mxPoint x="310" y="640" as="sourcePoint" />
            <mxPoint x="290" y="750" as="targetPoint" />
            <Array as="points">
              <mxPoint x="340" y="640" />
              <mxPoint x="340" y="750" />
              <mxPoint x="425" y="750" />
            </Array>
          </mxGeometry>
        </mxCell>
        <mxCell id="RAs32KpJlCHKYsDaDuBX-69" value="if the information is not correct" style="edgeLabel;html=1;align=center;verticalAlign=middle;resizable=0;points=[];" vertex="1" connectable="0" parent="RAs32KpJlCHKYsDaDuBX-68">
          <mxGeometry x="-0.7291" relative="1" as="geometry">
            <mxPoint x="87" as="offset" />
          </mxGeometry>
        </mxCell>
        <mxCell id="RAs32KpJlCHKYsDaDuBX-71" value="" style="rhombus;whiteSpace=wrap;html=1;" vertex="1" parent="1">
          <mxGeometry x="15" y="700" width="80" height="80" as="geometry" />
        </mxCell>
        <mxCell id="RAs32KpJlCHKYsDaDuBX-72" value="" style="edgeStyle=segmentEdgeStyle;endArrow=classic;html=1;curved=0;rounded=0;endSize=8;startSize=8;exitX=0;exitY=0.5;exitDx=0;exitDy=0;strokeColor=light-dark(#000000,#000000);entryX=0.5;entryY=0;entryDx=0;entryDy=0;" edge="1" parent="1" source="RAs32KpJlCHKYsDaDuBX-71" target="RAs32KpJlCHKYsDaDuBX-74">
          <mxGeometry width="50" height="50" relative="1" as="geometry">
            <mxPoint x="15" y="740" as="sourcePoint" />
            <mxPoint x="-65" y="800" as="targetPoint" />
          </mxGeometry>
        </mxCell>
        <mxCell id="RAs32KpJlCHKYsDaDuBX-73" value="Choosing to validate the&amp;nbsp;&lt;br&gt;account" style="edgeLabel;html=1;align=center;verticalAlign=middle;resizable=0;points=[];" vertex="1" connectable="0" parent="RAs32KpJlCHKYsDaDuBX-72">
          <mxGeometry x="-0.7291" relative="1" as="geometry">
            <mxPoint x="-51" y="10" as="offset" />
          </mxGeometry>
        </mxCell>
        <mxCell id="RAs32KpJlCHKYsDaDuBX-74" value="Validate the account and the chosen profile to be &quot;valid&quot;" style="rounded=0;whiteSpace=wrap;html=1;" vertex="1" parent="1">
          <mxGeometry x="-120" y="810" width="120" height="60" as="geometry" />
        </mxCell>
        <mxCell id="RAs32KpJlCHKYsDaDuBX-75" value="" style="edgeStyle=orthogonalEdgeStyle;html=1;verticalAlign=bottom;endArrow=block;endSize=8;strokeColor=light-dark(#FF0000,#000000);rounded=0;endFill=1;entryX=0.5;entryY=0;entryDx=0;entryDy=0;exitX=0.5;exitY=1;exitDx=0;exitDy=0;" edge="1" parent="1" source="RAs32KpJlCHKYsDaDuBX-74" target="RAs32KpJlCHKYsDaDuBX-62">
          <mxGeometry relative="1" as="geometry">
            <mxPoint x="-60.5" y="940" as="targetPoint" />
            <mxPoint x="-60.5" y="880" as="sourcePoint" />
          </mxGeometry>
        </mxCell>
        <mxCell id="RAs32KpJlCHKYsDaDuBX-77" value="" style="edgeStyle=segmentEdgeStyle;endArrow=classic;html=1;curved=0;rounded=0;endSize=8;startSize=8;exitX=1;exitY=0.5;exitDx=0;exitDy=0;strokeColor=light-dark(#000000,#000000);entryX=0.5;entryY=0;entryDx=0;entryDy=0;" edge="1" parent="1" source="RAs32KpJlCHKYsDaDuBX-71" target="RAs32KpJlCHKYsDaDuBX-79">
          <mxGeometry width="50" height="50" relative="1" as="geometry">
            <mxPoint x="235" y="770" as="sourcePoint" />
            <mxPoint x="160" y="800" as="targetPoint" />
          </mxGeometry>
        </mxCell>
        <mxCell id="RAs32KpJlCHKYsDaDuBX-78" value="Choosing not to validate the&amp;nbsp;&lt;br&gt;account" style="edgeLabel;html=1;align=center;verticalAlign=middle;resizable=0;points=[];" vertex="1" connectable="0" parent="RAs32KpJlCHKYsDaDuBX-77">
          <mxGeometry x="-0.7291" relative="1" as="geometry">
            <mxPoint x="58" as="offset" />
          </mxGeometry>
        </mxCell>
        <mxCell id="RAs32KpJlCHKYsDaDuBX-79" value="Close the profile" style="rounded=0;whiteSpace=wrap;html=1;" vertex="1" parent="1">
          <mxGeometry x="110" y="800" width="120" height="60" as="geometry" />
        </mxCell>
        <mxCell id="RAs32KpJlCHKYsDaDuBX-80" value="" style="ellipse;html=1;shape=endState;fillColor=#000000;strokeColor=light-dark(#000000,#000000);" vertex="1" parent="1">
          <mxGeometry x="155" y="940" width="30" height="30" as="geometry" />
        </mxCell>
        <mxCell id="RAs32KpJlCHKYsDaDuBX-81" value="" style="edgeStyle=orthogonalEdgeStyle;html=1;verticalAlign=bottom;endArrow=block;endSize=8;strokeColor=light-dark(#FF0000,#000000);rounded=0;endFill=1;entryX=0.5;entryY=0;entryDx=0;entryDy=0;exitX=0.5;exitY=1;exitDx=0;exitDy=0;" edge="1" parent="1" target="RAs32KpJlCHKYsDaDuBX-80" source="RAs32KpJlCHKYsDaDuBX-79">
          <mxGeometry relative="1" as="geometry">
            <mxPoint x="169.5" y="940" as="targetPoint" />
            <mxPoint x="170" y="870" as="sourcePoint" />
          </mxGeometry>
        </mxCell>
        <mxCell id="RAs32KpJlCHKYsDaDuBX-82" value="Close the profile" style="rounded=0;whiteSpace=wrap;html=1;" vertex="1" parent="1">
          <mxGeometry x="365" y="790" width="120" height="60" as="geometry" />
        </mxCell>
        <mxCell id="RAs32KpJlCHKYsDaDuBX-83" value="" style="ellipse;html=1;shape=endState;fillColor=#000000;strokeColor=light-dark(#000000,#000000);" vertex="1" parent="1">
          <mxGeometry x="410" y="930" width="30" height="30" as="geometry" />
        </mxCell>
        <mxCell id="RAs32KpJlCHKYsDaDuBX-84" value="" style="edgeStyle=orthogonalEdgeStyle;html=1;verticalAlign=bottom;endArrow=block;endSize=8;strokeColor=light-dark(#FF0000,#000000);rounded=0;endFill=1;entryX=0.5;entryY=0;entryDx=0;entryDy=0;exitX=0.5;exitY=1;exitDx=0;exitDy=0;" edge="1" parent="1" target="RAs32KpJlCHKYsDaDuBX-83" source="RAs32KpJlCHKYsDaDuBX-82">
          <mxGeometry relative="1" as="geometry">
            <mxPoint x="424.5" y="930" as="targetPoint" />
            <mxPoint x="425" y="860" as="sourcePoint" />
          </mxGeometry>
        </mxCell>
      </root>
    </mxGraphModel>
  </diagram>
</mxfile>
